<svg width="173" height="198" viewBox="0 0 173 198" fill="none" xmlns="http://www.w3.org/2000/svg">
<g clip-path="url(#paint0_diamond_4_16_clip_path)" data-figma-skip-parse="true"><g transform="matrix(0.0864553 -0.00317246 0.00279834 0.0980136 86.5 98.75)"><rect x="0" y="0" width="1043.93" height="1049.38" fill="url(#paint0_diamond_4_16)" opacity="1" shape-rendering="crispEdges"/><rect x="0" y="0" width="1043.93" height="1049.38" transform="scale(1 -1)" fill="url(#paint0_diamond_4_16)" opacity="1" shape-rendering="crispEdges"/><rect x="0" y="0" width="1043.93" height="1049.38" transform="scale(-1 1)" fill="url(#paint0_diamond_4_16)" opacity="1" shape-rendering="crispEdges"/><rect x="0" y="0" width="1043.93" height="1049.38" transform="scale(-1)" fill="url(#paint0_diamond_4_16)" opacity="1" shape-rendering="crispEdges"/></g></g><path d="M86.5 0L51.5 38L0 50L16 98L1 148.5L51.5 159L86.5 197.5L121.5 159L173 148L157 98.5L172.5 49L121 38L86.5 0Z" data-figma-gradient-fill="{&#34;type&#34;:&#34;GRADIENT_DIAMOND&#34;,&#34;stops&#34;:[{&#34;color&#34;:{&#34;r&#34;:0.50980395078659058,&#34;g&#34;:0.74901962280273438,&#34;b&#34;:0.79215687513351440,&#34;a&#34;:1.0},&#34;position&#34;:0.0},{&#34;color&#34;:{&#34;r&#34;:0.28235295414924622,&#34;g&#34;:0.62352943420410156,&#34;b&#34;:0.70980393886566162,&#34;a&#34;:1.0},&#34;position&#34;:0.50},{&#34;color&#34;:{&#34;r&#34;:0.18431372940540314,&#34;g&#34;:0.30196079611778259,&#34;b&#34;:0.32941177487373352,&#34;a&#34;:1.0},&#34;position&#34;:1.0}],&#34;stopsVar&#34;:[{&#34;color&#34;:{&#34;r&#34;:0.50980395078659058,&#34;g&#34;:0.74901962280273438,&#34;b&#34;:0.79215687513351440,&#34;a&#34;:1.0},&#34;position&#34;:0.0},{&#34;color&#34;:{&#34;r&#34;:0.28235295414924622,&#34;g&#34;:0.62352943420410156,&#34;b&#34;:0.70980393886566162,&#34;a&#34;:1.0},&#34;position&#34;:0.50},{&#34;color&#34;:{&#34;r&#34;:0.18431372940540314,&#34;g&#34;:0.30196079611778259,&#34;b&#34;:0.32941177487373352,&#34;a&#34;:1.0},&#34;position&#34;:1.0}],&#34;transform&#34;:{&#34;m00&#34;:172.91062927246094,&#34;m01&#34;:5.5966892242431641,&#34;m02&#34;:-2.7536613941192627,&#34;m10&#34;:-6.3449139595031738,&#34;m11&#34;:196.02716064453125,&#34;m12&#34;:3.9088938236236572},&#34;opacity&#34;:1.0,&#34;blendMode&#34;:&#34;NORMAL&#34;,&#34;visible&#34;:true}"/>
<defs>
<clipPath id="paint0_diamond_4_16_clip_path"><path d="M86.5 0L51.5 38L0 50L16 98L1 148.5L51.5 159L86.5 197.5L121.5 159L173 148L157 98.5L172.5 49L121 38L86.5 0Z"/></clipPath><linearGradient id="paint0_diamond_4_16" x1="0" y1="0" x2="500" y2="500" gradientUnits="userSpaceOnUse">
<stop stop-color="#82BFCA"/>
<stop offset="0.5" stop-color="#489FB5"/>
<stop offset="1" stop-color="#2F4D54"/>
</linearGradient>
</defs>
</svg>
