<svg width="51" height="62" viewBox="0 0 51 62" fill="none" xmlns="http://www.w3.org/2000/svg">
<path d="M36 0H32V6H34.0002L38.0002 8.5V26.5L41.5002 30.5C41.8336 30.5 41.5002 31.5 37.5002 35.5V41.5V44.5V51C37.6179 53.2377 36.7133 55.9136 32.0002 55.5V56V58.5V61.5H34.0002L35.5002 61.3391C38.4647 60.3512 42.3284 58.453 44 55V35.5C44.9318 33.5183 46.346 33.1451 49.5 33C49.8871 33.6074 50.2805 32.7669 50 28C44.9153 29.4847 41.0488 24.3583 44 7.5C42.7729 3.44485 40.9551 1.84591 36 0Z" fill="#16697A"/>
<path d="M14.0949 0H18.0949V6H16.0947L12.0947 8.5V26.5L8.59473 30.5C8.26139 30.5 8.59473 31.5 12.5947 35.5V41.5V44.5V51C12.4771 53.2377 13.3816 55.9136 18.0947 55.5V56V58.5V61.5H16.0947L14.5947 61.3391C11.6302 60.3512 7.76655 58.453 6.09494 55V35.5C5.16317 33.5183 3.74893 33.1451 0.594938 33C0.207847 33.6074 -0.185574 32.7669 0.0949382 28C5.17963 29.4847 9.04617 24.3583 6.09494 7.5C7.32203 3.44485 9.13984 1.84591 14.0949 0Z" fill="#16697A"/>
</svg>
