<svg width="57" height="64" viewBox="0 0 57 64" fill="none" xmlns="http://www.w3.org/2000/svg">
<path d="M35.4999 3L33.4999 5.5C42.9015 11.4731 46.8276 15.7435 50 26V32V38C46.9348 49.5083 42.793 53.4543 33 58L35.5 61L37.5 63.5C48.8957 56.667 53.8182 51.6198 57 38V32V26C54.1336 13.5765 49.5739 8.14601 37.5 0.5L35.4999 3Z" fill="#16697A"/>
<path d="M21.5001 2.5L23.5001 5C14.0985 10.9731 10.1724 15.2435 7 25.5V31.5V37.5C10.0652 49.0083 14.207 52.9543 24 57.5L21.5 60.5L19.5 63C8.10431 56.167 3.18183 51.1198 0 37.5V31.5V25.5C2.86637 13.0765 7.42606 7.64601 19.5 0L21.5001 2.5Z" fill="#16697A"/>
</svg>
